<svg xmlns:dc="http://purl.org/dc/elements/1.1/" xmlns:cc="http://creativecommons.org/ns#" xmlns:rdf="http://www.w3.org/1999/02/22-rdf-syntax-ns#" xmlns:svg="http://www.w3.org/2000/svg" xmlns="http://www.w3.org/2000/svg" xmlns:sodipodi="http://sodipodi.sourceforge.net/DTD/sodipodi-0.dtd" xmlns:inkscape="http://www.inkscape.org/namespaces/inkscape" version="1.1" x="0px" y="0px" viewBox="0 0 100 125">
<g transform="translate(0,-952.36218)">
<path style="color:#ffffff;fill:#ffffff;fill-opacity:1;stroke:none;stroke-width:4;marker:none;visibility:visible;display:inline;overflow:visible;enable-background:accumulate;font-family:Sans;-inkscape-font-specification:Sans"
d="M 48 31 C 43.843606 31 40.490284 34.24643 40.125 38.3125 C 38.900074 37.54856 37.540941 37 36 37 C 31.822465 37 28.460578 40.27964 28.125 44.375 C 23.545055 45.28582 20 49.1604 20 54 L 20 62 C 20 66.9917 22.764508 71.9589 26 76.4375 C 29.023051 80.622 32.486835 84.24655 35 86.78125 L 35 92 C 35.000105 93.047169 35.952831 93.999895 37 94 L 71 94 C 72.047169 93.999895 72.999895 93.047169 73 92 L 73 81.6875 C 77.318715 77.0445 80 70.8467 80 64 L 80 49 C 80 44.60257 76.397406 41 72 41 C 70.459059 41 69.099926 41.54856 67.875 42.3125 C 67.509716 38.24643 64.156394 35 60 35 C 58.298481 35 56.800859 35.6464 55.5 36.5625 C 54.454216 33.35925 51.539066 31 48 31 z M 48 35 C 50.250594 35 52 36.74941 52 39 L 52 43 C 52 44.104569 52.895431 45 54 45 C 55.104569 45 56 44.104569 56 43 C 56 40.74941 57.749406 39 60 39 C 62.250594 39 64 40.74941 64 43 L 64 45 L 64 49 C 64 50.104569 64.895431 51 66 51 C 67.104569 51 68 50.104569 68 49 C 68 46.74937 69.749406 45 72 45 C 74.250594 45 76 46.74937 76 49 L 76 64 C 76 70.1141 73.567493 75.5888 69.59375 79.5625 C 69.215129 79.936893 68.995947 80.467545 69 81 L 69 90 L 39 90 L 39 86 C 39.0041 85.467545 38.784871 84.936893 38.40625 84.5625 C 35.934765 82.091 32.264508 78.26635 29.25 74.09375 C 26.235492 69.92105 24 65.4034 24 62 L 24 54 C 24 51.344768 25.648976 49.151679 28 48.34375 L 28 60 C 27.98506 61.056625 28.943269 62.03125 30 62.03125 C 31.056731 62.03125 32.014943 61.056625 32 60 L 32 45 C 32 42.74941 33.749406 41 36 41 C 38.250594 41 40 42.74941 40 45 C 40 46.104569 40.895431 47 42 47 C 43.104569 47 44 46.104569 44 45 L 44 39 C 44 36.74941 45.749406 35 48 35 z "
transform="translate(0,952.36218)"/></g>
</svg>