<svg height='30px' width='30px'  fill="#FFFFFF" xmlns:x="http://ns.adobe.com/Extensibility/1.0/" xmlns:i="http://ns.adobe.com/AdobeIllustrator/10.0/" xmlns:graph="http://ns.adobe.com/Graphs/1.0/" xmlns="http://www.w3.org/2000/svg" xmlns:xlink="http://www.w3.org/1999/xlink" version="1.1" x="0px" y="0px" viewBox="0 0 100 100" enable-background="new 0 0 100 100" xml:space="preserve"><g><g i:extraneous="self"><path d="M81.759,63.209c-0.006-0.403-0.013-0.814-0.013-1.234V44.992c0-0.12-0.018-0.234-0.044-0.346V33.248    c0-3.524-2.867-6.391-6.391-6.391c-1.21,0-2.339,0.344-3.305,0.931c-0.34-3.581-3.361-6.392-7.029-6.392    c-1.934,0-3.688,0.783-4.965,2.047c-1.231-2.762-3.997-4.695-7.211-4.695c-3.09,0-5.764,1.789-7.06,4.382    c-1.434-1.466-3.431-2.38-5.639-2.38c-4.353,0-7.895,3.542-7.895,7.895v16.719c-1.285-0.63-2.706-0.963-4.179-0.963    c-2.538,0-4.923,0.988-6.717,2.783l-0.299,0.299c-1.794,1.794-2.783,4.18-2.783,6.718s0.988,4.923,2.783,6.717l12.226,12.226    c0.509,0.509,1.002,1.034,1.495,1.557c2.209,2.348,4.494,4.776,8.022,5.759c2.508,0.699,5.13,0.794,7.71,0.794    c0.484,0,0.967-0.003,1.446-0.007l13.579-0.006c0.168,0,0.333-0.01,0.499-0.021l0.098-0.007    c6.648-0.415,11.942-6.117,14.455-10.874C81.834,67.889,81.798,65.616,81.759,63.209z M77.888,68.936    c-2.321,4.392-6.928,8.965-11.992,9.281l-0.115,0.008c-0.097,0.007-0.194,0.015-0.292,0.015H53.268l-1.378,0.006    c-2.834,0.02-5.758,0.04-8.331-0.677c-2.722-0.758-4.626-2.782-6.643-4.925c-0.513-0.545-1.027-1.091-1.558-1.622L23.132,58.795    c-1.228-1.228-1.904-2.86-1.904-4.596s0.676-3.369,1.904-4.597l0.299-0.299c1.228-1.228,2.86-1.904,4.596-1.904    s3.369,0.676,4.63,1.938c0.431,0.422,1.074,0.544,1.63,0.311c0.557-0.234,0.918-0.779,0.918-1.383V28.644    c0-2.699,2.196-4.895,4.895-4.895c2.392,0,4.38,1.726,4.804,3.996v4.239c0,0.175,0.036,0.341,0.091,0.497v0.509    c0,0.829,0.671,1.5,1.5,1.5s1.5-0.671,1.5-1.5v-4.346c0-0.385-0.037-0.762-0.091-1.133v-0.868c0-2.699,2.196-4.895,4.895-4.895    s4.895,2.196,4.895,4.895v7.347c0,0.428,0.181,0.811,0.468,1.085c0.269,0.405,0.727,0.672,1.25,0.672c0.829,0,1.5-0.671,1.5-1.5    V28.46c0-2.241,1.823-4.063,4.063-4.063s4.063,1.823,4.063,4.063v3.567c-0.077,0.396-0.12,0.803-0.12,1.221v2.67    c0,0.555,0.305,1.034,0.753,1.294c0.245,0.175,0.543,0.28,0.867,0.28c0.829,0,1.5-0.671,1.5-1.5v-3.59    c0.379-1.459,1.695-2.544,3.271-2.544c1.87,0,3.391,1.521,3.391,3.391v14.739c0,0.12,0.018,0.234,0.044,0.346v13.642    c0,0.437,0.007,0.863,0.014,1.282C78.794,65.442,78.822,67.167,77.888,68.936z"></path></g></g></svg>