<svg height='30px' width='30px'  fill="#FFFFFF" xmlns:x="http://ns.adobe.com/Extensibility/1.0/" xmlns:i="http://ns.adobe.com/AdobeIllustrator/10.0/" xmlns:graph="http://ns.adobe.com/Graphs/1.0/" xmlns="http://www.w3.org/2000/svg" xmlns:xlink="http://www.w3.org/1999/xlink" version="1.1" x="0px" y="0px" viewBox="0 0 100 100" enable-background="new 0 0 100 100" xml:space="preserve"><g><g i:extraneous="self"><path d="M81.227,73.474c-0.006-0.403-0.013-0.814-0.013-1.234V55.257c0-5.198-4.196-9.435-9.379-9.499L47.464,41.97V14.895    c0-4.354-3.542-7.895-7.895-7.895c-4.353,0-7.895,3.542-7.895,7.895v40.014l-4.651-4.65c-1.794-1.794-4.18-2.782-6.717-2.782    s-4.923,0.988-6.717,2.782l-0.299,0.299c-3.704,3.704-3.704,9.731,0,13.435l19.415,19.415c0.509,0.509,1.002,1.034,1.494,1.557    c2.209,2.348,4.494,4.776,8.023,5.759c2.504,0.697,5.199,0.793,7.739,0.793l14.996-0.013c0.168,0,0.333-0.01,0.499-0.021    l0.098-0.007c6.648-0.415,11.942-6.117,14.455-10.874C81.302,78.153,81.266,75.88,81.227,73.474z M77.356,79.2    c-2.321,4.392-6.928,8.965-11.992,9.281l-0.116,0.008c-0.097,0.007-0.193,0.015-0.292,0.015H52.736l-2.775,0.013    c-2.327,0-4.777-0.083-6.934-0.683c-2.723-0.759-4.627-2.782-6.643-4.925c-0.513-0.544-1.027-1.091-1.558-1.622L15.411,61.871    c-2.534-2.535-2.534-6.658,0-9.193l0.299-0.299c1.228-1.228,2.86-1.903,4.596-1.903s3.369,0.676,4.596,1.903l7.211,7.211    c0.429,0.429,1.073,0.558,1.635,0.325c0.561-0.232,0.926-0.779,0.926-1.386V14.895c0-2.699,2.196-4.895,4.895-4.895    c2.699,0,4.895,2.196,4.895,4.895v28.36c0,0.739,0.539,1.369,1.27,1.482l25.75,4.002c0.076,0.012,0.153,0.018,0.23,0.018    c3.584,0,6.5,2.916,6.5,6.5V72.24c0,0.437,0.007,0.863,0.014,1.282C78.263,75.707,78.29,77.432,77.356,79.2z"></path></g></g></svg>