<svg id="Layer_1" data-name="Layer 1" xmlns="http://www.w3.org/2000/svg" viewBox="0 0 28 28"><g id="Wireframes"><g id="Our-Work---Project-Map"><g id="icon-stw-fish-hook"><g id="Education"><circle id="Oval" cx="14" cy="14" r="14" style="fill:#0f854e"/></g><path d="M21.82,7.53a.77.77,0,0,0-1,.36.79.79,0,1,0,1-.36Z" style="fill:none"/><path d="M21.59,5.63A2.45,2.45,0,0,0,19.15,7a2.44,2.44,0,0,0,.33,2.8.32.32,0,0,1,.06.38L15,20a4,4,0,0,1-1,1.34,4.26,4.26,0,0,1-5.84-.17A4,4,0,0,1,7,17.19a14.71,14.71,0,0,1,.6-1.64s.05-.05.09-.1l.8.88.79.87,0,0a18.61,18.61,0,0,1-1-7.4l-.09.16L5.56,15.54A5.82,5.82,0,0,0,5.31,20a6.26,6.26,0,0,0,6.45,4.18,5.83,5.83,0,0,0,4.94-3.48c1.52-3.21,3-6.43,4.51-9.65a.33.33,0,0,1,.35-.24A2.5,2.5,0,0,0,24,9,2.63,2.63,0,0,0,21.59,5.63Zm.63,2.91a.79.79,0,0,1-1.43-.65.77.77,0,0,1,1-.36A.78.78,0,0,1,22.22,8.54Z" style="fill:#fff"/></g></g></g></svg>