<?xml version="1.0" encoding="UTF-8"?>
<svg width="29px" height="28px" viewBox="0 0 29 28" version="1.1" xmlns="http://www.w3.org/2000/svg" xmlns:xlink="http://www.w3.org/1999/xlink">
    <title>icon-cs-crab</title>
    <g id="Wireframes" stroke="none" stroke-width="1" fill="none" fill-rule="evenodd">
        <g id="Our-Work---Project-Map" transform="translate(-1162.000000, -1047.000000)">
            <g id="icon-cs-crab" transform="translate(1162.000000, 1047.000000)">
                <circle id="Oval" fill="#473892" cx="14" cy="14" r="14"></circle>
                <path d="M15.1000717,25.954622 C15.7006877,25.4856379 16.301182,25.0268781 17.0099502,24.7469239 C17.199612,24.6720665 17.272119,24.5839418 17.287326,24.3786015 C17.3272292,23.8448626 17.4018044,23.3140451 17.4558196,22.78128 C17.4622674,22.7178643 17.4407343,22.6434939 17.4101986,22.5857989 C17.0600725,21.9232812 16.6988756,21.2664842 16.3569005,20.5999497 C16.2583591,20.4079985 16.1790393,20.357485 15.9643164,20.4547387 C15.5881558,20.6256325 15.1990997,20.7828937 14.8001895,20.8859899 C14.0712264,21.0744113 13.4011448,20.853856 12.7580709,20.5117033 C12.3541728,20.2969906 12.3550244,20.3067281 12.1389632,20.7130269 C11.801611,21.3479144 11.4562294,21.97842 11.1177823,22.6126989 C11.0919912,22.660778 11.0798256,22.7251675 11.0851785,22.779576 C11.1373689,23.312341 11.2051313,23.8436455 11.2449129,24.3771408 C11.2587816,24.5645884 11.3247192,24.6457752 11.4930912,24.7360908 C12.1654843,25.0966232 12.8212104,25.4884374 13.4830194,25.8685665 C13.4685423,25.9022828 13.4539436,25.9361207 13.4394665,25.9698369 C13.0741334,25.9698369 12.7057588,26 12.3443187,25.9631424 C11.7128021,25.8986312 11.1143759,25.7150786 10.5986759,25.3213169 C10.5666803,25.2970948 10.5311568,25.2571709 10.4980663,25.2579012 C10.0292039,25.2686125 9.97531022,24.9262163 9.92457965,24.5854024 C9.83041786,23.955262 9.69635288,23.3256084 9.88005353,22.68853 C9.89075926,22.6512839 9.90243824,22.5960234 9.88394652,22.5715578 C9.65024523,22.2621475 9.85389748,22.0406185 10.0352867,21.8209153 C10.5248306,21.2277775 11.0197275,20.6390216 11.5113396,20.0475879 C11.5356708,20.0183752 11.5484447,19.9796685 11.5805619,19.9191741 C11.3030645,19.7569223 11.0405307,19.5898018 10.7635198,19.4521374 C10.7012319,19.421099 10.5728848,19.470517 10.501351,19.520787 C10.3277478,19.6427497 10.1760427,19.7958725 10.0026828,19.9182003 C9.91679366,19.9788165 9.77968728,20.0567168 9.70499046,20.0272607 C9.44598471,19.9248949 9.3142312,20.0822778 9.16033628,20.2282192 C8.77797129,20.5911859 8.4116649,20.9746015 8.00241391,21.3045823 C7.28877947,21.8797057 6.55190872,22.4267119 5.81333478,22.9698231 C5.70846726,23.0468714 5.53887872,23.0359166 5.32281755,23.0820482 C4.90468568,23.7571031 4.26355825,24.3341739 3.5809461,24.8693734 C3.55454674,24.8573232 3.52802571,24.8453947 3.50162635,24.8333445 C3.55819642,24.6180232 3.60722381,24.4001458 3.67303974,24.187624 C3.8710958,23.548598 4.20577162,22.9912457 4.65188439,22.4903711 C5.19994493,21.8752021 5.82598701,21.3649551 6.47295394,20.853856 C7.24571322,20.2431907 8.10265851,19.8174168 8.93904391,19.3349218 C9.19439998,19.1876415 9.39829553,18.9510193 9.64002612,18.7430012 C9.25766113,18.447832 8.87517448,18.1526629 8.51434261,17.8741693 C7.75374893,18.3964665 7.02794888,18.9513845 6.24789023,19.4147696 C5.43072648,19.900551 4.522564,20.190608 3.58532572,20.3661271 C3.30892315,20.4179795 3.25734098,20.3697787 3.1050276,20.0408933 C2.65027725,20.3459217 2.12752116,20.417736 1.60464342,20.4079985 C1.0883351,20.3985044 0.573365007,20.3125706 0,20.2543888 C0.474580287,19.7207717 2.46973966,19.2117419 2.88105879,19.3934687 C3.15685308,19.2310953 3.36524991,19.0705476 3.6000461,18.9760935 C5.02403027,18.4032828 6.4542189,17.8455653 7.88136613,17.2831007 C7.71567058,16.8292097 7.62576675,16.7864863 7.2111629,16.9009023 C6.42380489,17.1182929 5.65335707,16.9963302 4.86964873,16.8283577 C3.97632829,16.6370151 3.23556455,16.1787422 2.52849953,15.6446382 C2.40088233,15.5482366 2.34090589,15.3604238 2.25392181,15.2122915 C2.18895747,15.1014053 2.14455301,14.9759127 2.0670581,14.8753727 C1.52787845,14.1763391 1.25439563,13.3738442 1.10427205,12.4883369 C1.16874976,12.5003871 1.21668225,12.4945445 1.23845868,12.515602 C1.81693324,13.0807443 2.45295112,13.5943995 2.85624096,14.3176551 C2.88434351,14.3681686 2.92801803,14.4195341 2.97753205,14.446921 C3.5507754,14.7643647 4.12523531,15.079861 4.70297993,15.3889061 C4.79580351,15.4385675 4.93351817,15.5100167 5.00480862,15.4758136 C5.32123603,15.3243949 5.59690866,15.4592598 5.88559848,15.5471411 C6.32781826,15.6817625 6.7723495,15.8083505 7.2432801,15.9461367 C7.28099348,15.6526717 7.26359667,15.3862283 7.35410877,15.1637255 C7.55520624,14.6694237 7.79207059,14.1869287 8.05217124,13.7208658 C8.15898526,13.5295231 8.15119927,13.4378686 7.97175659,13.336233 C7.85752155,13.2714784 7.75435721,13.1878573 7.64316357,13.1173818 C7.18026226,12.8241602 6.73938071,12.5393372 6.62855204,11.9183257 C6.53134885,11.3746059 6.40275839,10.8468313 6.60884376,10.30725 C6.68731191,10.1017879 6.78025714,9.90192496 6.86164505,9.69755837 C6.88256989,9.64497566 6.89765524,9.58411605 6.89351893,9.5287338 C6.80300683,8.30107365 7.408854,7.45232547 8.37164005,6.79601539 C8.4288184,6.75706523 8.49791904,6.7239576 8.53551076,6.66991427 C9.14074966,5.80071725 10.0315153,5.39514878 11.0129148,5.14063387 C11.6255747,4.98166856 12.2477238,4.96840116 12.8903111,5.07283626 C11.7337269,5.5914819 10.539916,6.04013897 9.67822613,7.08522028 C10.1406408,7.27558915 10.5880918,7.24394215 11.0334746,7.14948803 C11.2298275,7.10786005 11.4119466,6.99636524 11.6085428,6.958754 C11.9463817,6.89412109 12.2906683,6.86247409 12.6321569,6.81707281 L12.6687754,6.92406402 C12.6079473,6.99624352 12.5502824,7.07134428 12.485683,7.13987221 C11.4432122,8.24739547 10.405486,9.35930063 9.35109298,10.4552606 C9.19269679,10.6200684 8.95108786,10.7021072 8.75862798,10.8377024 C8.67626682,10.8957625 8.60302988,10.983522 8.55753051,11.0738377 C8.43477955,11.3173979 8.31652986,11.5648531 8.22419291,11.8207069 C8.19280564,11.9076144 8.24256297,12.0247083 8.25947317,12.1273176 C8.2621496,12.1433846 8.28648081,12.1564085 8.30144451,12.1699194 C8.49633751,12.3466557 8.67127893,12.6251493 8.89244964,12.6689682 C9.08417959,12.7068229 9.32384203,12.467888 9.55060892,12.3707561 C9.87555225,12.2317527 10.2013472,12.0878806 10.539551,11.99014 C10.7338358,11.9340275 10.8006249,11.8502847 10.8129122,11.6599158 C10.8217931,11.5223731 10.8641294,11.3785009 10.925809,11.254469 C11.0969791,10.9107339 11.3739899,10.7049067 11.7697371,10.7120881 C12.153562,10.7192696 12.4104996,10.9356864 12.5792365,11.2637197 C12.6389696,11.3797181 12.6736416,11.5084971 12.7336181,11.6685578 C13.0872722,11.6304597 13.4468875,11.5621752 13.8069895,11.5594974 C14.4636889,11.5548721 15.1212399,11.5758078 15.7767227,11.6147579 C15.9873094,11.627295 16.1040992,11.6148797 16.1864603,11.3896991 C16.3677278,10.8939367 16.7367107,10.6620615 17.1802687,10.7181741 C17.5974273,10.7710003 17.9547311,11.1342104 17.9853885,11.6201136 C18.0044885,11.9252637 18.1370936,12.0148491 18.4051019,12.1028521 C18.8430637,12.2464807 19.2563293,12.4653319 19.7029287,12.6625171 C19.68833,12.6689682 19.7104714,12.6650732 19.7243402,12.6520492 C19.9309122,12.4575419 20.2357822,12.2937078 20.3114523,12.0565987 C20.3747135,11.8581964 20.1670466,11.5750775 20.0845638,11.327744 C19.9947816,11.0594748 19.9153402,10.7972916 19.5575497,10.7668618 C19.4652128,10.75895 19.3722675,10.6479421 19.2967191,10.5680943 C18.1889191,9.39715531 17.0839171,8.22366022 15.9787934,7.05004342 C15.9455813,7.01474484 15.9195469,6.97262999 15.8425386,6.87038584 C16.2449769,6.85358858 16.5881686,6.79236381 16.9246693,6.9460952 C17.4150649,7.17042374 17.925412,7.2714507 18.4630102,7.19768884 C18.5891675,7.18040471 18.7119185,7.13865502 18.8763974,7.09824423 C18.0061917,6.04573806 16.8241814,5.58989955 15.6317087,5.11129954 C15.6848724,5.06261185 15.7033641,5.03011281 15.7246539,5.0281653 C17.0558145,4.90608092 18.2948815,5.17228087 19.3647249,5.99546802 C19.887116,6.39750663 20.3623045,6.86600394 20.8292205,7.3341361 C21.3061123,7.81249267 21.6254594,8.40465672 21.6763116,9.07861609 C21.703076,9.43354936 21.7344632,9.75500985 21.874611,10.091807 C22.2063671,10.8890679 22.0314257,11.6813384 21.7250957,12.4498736 C21.6872607,12.5446929 21.5940721,12.6280705 21.507818,12.6909994 C21.1652345,12.9407672 20.8152301,13.1803107 20.4408944,13.4424939 C20.9429689,14.1919192 21.3274021,14.9744521 21.4148728,15.917411 C21.9260715,15.7640447 22.4124525,15.602645 22.9080792,15.4776394 C23.0921449,15.4312644 23.2981086,15.4765439 23.4933665,15.4675367 C23.5972608,15.4627897 23.7141723,15.4567037 23.8006697,15.4077726 C24.2503105,15.1536228 24.6712405,14.8360573 25.142901,14.6375333 C25.5349985,14.4726037 25.7371909,14.1777998 25.9868291,13.8783704 C26.4036228,13.3785913 26.8791763,12.927865 27.329912,12.4564464 C27.368842,12.4767735 27.4075286,12.4969789 27.4463369,12.517306 C27.3587445,12.8612846 27.3082572,13.220478 27.1741923,13.5452249 C26.9976693,13.9728246 26.753019,14.3719419 26.5426757,14.785909 C26.4454725,14.9770082 26.3691941,15.1791839 26.2657865,15.3665097 C26.2095814,15.4685105 26.1318432,15.572337 26.0373164,15.6369699 C25.5859724,15.9457716 25.1526335,16.3007048 24.6607781,16.5246682 C24.1944704,16.7370683 23.6672131,16.8233672 23.1602723,16.9365661 C22.5171983,17.0800731 21.8737594,17.0635192 21.2377416,16.8684033 C20.9226524,16.7717582 20.9047689,17.0843332 20.7085377,17.2566877 C21.19869,17.4682357 21.6440728,17.6747932 22.099918,17.8544508 C23.1141646,18.2542985 24.1364405,18.6336973 25.1480106,19.0399961 C25.3121246,19.1059679 25.4380386,19.267611 25.6103036,19.4086836 C25.9895056,19.1914148 26.4125037,19.3736285 26.8179833,19.4924265 C27.3923216,19.6608859 27.9480465,19.8923958 28.5,20.1523881 C27.468235,20.4591206 26.4542317,20.5633122 25.4526374,20.0666978 C25.2227074,20.4149365 25.1641909,20.4490179 24.7396112,20.3176828 C24.2005532,20.1510492 23.6737825,19.9438831 23.1335079,19.7813879 C21.996632,19.4393569 21.1705874,18.5987639 20.2059765,17.9811605 C20.1719128,17.9593728 20.1404039,17.9341769 20.1025689,17.9069118 C19.7310313,18.1880832 19.3616835,18.4676723 18.962165,18.7701445 C19.1821191,18.9665994 19.3708077,19.1944578 19.6101051,19.337843 C20.24296,19.7171201 20.9222874,20.0225137 21.5367721,20.4275953 C22.1400645,20.825252 22.7540627,21.2465223 23.2417818,21.7708887 C23.9742729,22.5586556 24.7503169,23.3514129 24.9633367,24.4830366 C24.986573,24.6058513 25.0068896,24.7292746 25.044603,24.9448393 C24.3697768,24.3910168 23.7765818,23.8953761 23.3376468,23.2423525 C23.2462831,23.1063921 23.1749926,22.9735964 22.9575933,23.049184 C22.8813149,23.0757188 22.7466417,22.9944104 22.6633073,22.9302644 C22.119748,22.5121588 21.5737556,22.0964876 21.0466199,21.658055 C20.4408944,21.1545025 19.8577969,20.6239284 19.2545045,20.1175764 C19.1742115,20.0500222 19.0289541,20.065724 18.9203153,20.0250698 C18.7391694,19.9571505 18.5405051,19.9055415 18.3898949,19.7928295 C17.9234655,19.4439822 17.9307649,19.4336361 17.4217559,19.7258839 C17.2914623,19.8006195 17.1629935,19.8786416 17.0058139,19.9717568 C17.2189553,20.2178731 17.4223642,20.4374545 17.6083763,20.6707903 C17.9622738,21.1145786 18.304614,21.5674959 18.6553484,22.0137186 C18.7731114,22.1635549 18.8197057,22.3071836 18.7043758,22.4845285 C18.6676356,22.541128 18.6613095,22.6355821 18.6762732,22.7050838 C18.8366159,23.4483014 18.6923318,24.1752086 18.5552254,24.9002901 C18.5352739,25.0052121 18.4435452,25.1355734 18.3497484,25.1809746 C17.8831974,25.4062769 17.4149432,25.6359611 16.9278323,25.8091676 C16.3419368,26.0174292 15.7261138,26.0371477 15.1000717,25.954622" id="Fill-1" fill="#FFFFFF"></path>
            </g>
        </g>
    </g>
</svg>