<svg id="Layer_1" data-name="Layer 1" xmlns="http://www.w3.org/2000/svg" xmlns:xlink="http://www.w3.org/1999/xlink" viewBox="0 0 28 28"><defs><mask id="mask" x="16" y="6" width="6" height="7" maskUnits="userSpaceOnUse"><g id="mask-2"><polygon id="path-1" points="16 6 22 6 22 13 16 13 16 6" style="fill:#fff;fill-rule:evenodd"/></g></mask><mask id="mask-2-2" x="21" y="8" width="5" height="3" maskUnits="userSpaceOnUse"><g id="mask-4"><polygon id="path-3" points="21 8 26 8 26 11 21 11 21 8" style="fill:#fff;fill-rule:evenodd"/></g></mask></defs><g id="Our-Work---Project-Map"><g id="icon-cs-birds"><circle id="Oval" cx="14" cy="14" r="14" style="fill:#473892"/><g id="Group-13"><g id="Group-3"><g style="mask:url(#mask)"><path id="Fill-1" d="M20.28,7.22a.45.45,0,1,1-.43.45.44.44,0,0,1,.43-.45m-3.84,5.45a6.57,6.57,0,0,1,.13-5,3.1,3.1,0,0,1,3.37-1.56,2.64,2.64,0,0,1,1.5.86A2.26,2.26,0,0,1,22,8.09a1.85,1.85,0,0,1-1.06,2l-.35.2a.82.82,0,0,0,.33,1.56c-1.07,1.51-3.57,1.24-4.45.82" style="fill:#fff;fill-rule:evenodd"/></g></g><path id="Fill-4" d="M17.51,14.44C15.14,17.25,6,13.79,5,12.48c2.28.84,5.63-.46,8.86-.48a6.64,6.64,0,0,1,5.26,2,3.44,3.44,0,0,1,.8,3c-.35,1.57-2,2.55-3.84,2.87a16.68,16.68,0,0,1-10.84-2.4A6.83,6.83,0,0,1,7.8,14.88c3.91,1.16,8.35,1.68,9.71-.44" style="fill:#fff;fill-rule:evenodd"/><path id="Fill-6" d="M4.88,16A8.18,8.18,0,0,1,3,11a14.28,14.28,0,0,0,4,2.31A7.78,7.78,0,0,0,4.88,16" style="fill:#fff;fill-rule:evenodd"/><path id="Fill-8" d="M21.29,12a3.67,3.67,0,0,1,1.17,5A7.4,7.4,0,0,1,17,20a4.05,4.05,0,0,0,1.86-4.7,4.7,4.7,0,0,0-1.46-2.13,6.49,6.49,0,0,0,1.76,0,4.09,4.09,0,0,0,1.42-.51,2.87,2.87,0,0,0,.71-.63" style="fill:#fff;fill-rule:evenodd"/><g id="Group-12"><g style="mask:url(#mask-2-2)"><path id="Fill-10" d="M26,10.76c-.56.51-3.36.12-5-.39a2.61,2.61,0,0,0,.31-.27,13.65,13.65,0,0,0,2.5.59,15.81,15.81,0,0,1-2.36-.75,2.78,2.78,0,0,0,.63-1.64,1.5,1.5,0,0,0,0-.3c1.28,2.08,4,1.84,3.92,2.76" style="fill:#fff;fill-rule:evenodd"/></g></g></g></g></g></svg>