<?xml version="1.0" encoding="UTF-8"?>
<svg width="28px" height="28px" viewBox="0 0 28 28" version="1.1" xmlns="http://www.w3.org/2000/svg" xmlns:xlink="http://www.w3.org/1999/xlink">
    <title>Education</title>
    <defs>
        <polygon id="path-1" points="0 0 18 0 18 18 0 18"></polygon>
    </defs>
    <g id="Wireframes" stroke="none" stroke-width="1" fill="none" fill-rule="evenodd">
        <g id="Our-Work---Project-Map" transform="translate(-860.000000, -925.000000)">
            <g id="Education" transform="translate(860.000000, 925.000000)">
                <circle id="Oval" fill="#D85608" cx="14" cy="14" r="14"></circle>
                <g id="Group-3" transform="translate(5.000000, 4.000000)">
                    <mask id="mask-2" fill="white">
                        <use xlink:href="#path-1"></use>
                    </mask>
                    <g id="Clip-2"></g>
                    <path d="M16.9520127,6.75174041 C15.2522412,6.84806829 11.87344,7.19927832 9.78801195,8.47615003 C9.64387414,8.56439199 9.56266479,8.7208369 9.56266479,8.88501616 L9.56266479,17.5260486 C9.56266479,17.8842898 9.95429777,18.1106955 10.2847601,17.9444069 C12.4306557,16.8644097 15.5341888,16.5694495 17.0687291,16.4889419 C17.592547,16.4615201 18,16.041404 18,15.5376162 L18,7.70412077 C17.9996484,7.15463 17.5232906,6.71939674 16.9520127,6.75174041 M8.21198805,8.47615003 C6.12620847,7.19927832 2.74775883,6.84841985 1.04763579,6.75174041 C0.476357884,6.71939674 0,7.15463 0,7.70412077 L0,15.5369131 C0,16.0407008 0.407452979,16.4608169 0.931270874,16.4878872 C2.46616277,16.5683948 5.57145368,16.863355 7.71770083,17.9444069 C8.04710845,18.1103439 8.43768676,17.8842898 8.43768676,17.5271033 L8.43768676,8.87903962 C8.43733521,8.71486035 8.35612586,8.56439199 8.21198805,8.47615003 M12.3747583,3.3749913 C12.3747583,1.51101173 10.8637722,0 8.99982422,0 C7.13587625,0 5.62489014,1.51101173 5.62489014,3.3749913 C5.62489014,5.23897087 7.13587625,6.7499826 8.99982422,6.7499826 C10.8637722,6.7499826 12.3747583,5.23897087 12.3747583,3.3749913" id="Fill-1" fill="#FFFFFF" mask="url(#mask-2)"></path>
                </g>
            </g>
        </g>
    </g>
</svg>