<?xml version="1.0" encoding="UTF-8"?>
<svg width="28px" height="28px" viewBox="0 0 28 28" version="1.1" xmlns="http://www.w3.org/2000/svg" xmlns:xlink="http://www.w3.org/1999/xlink">
    <title>icon-cs-water-droplet</title>
    <g id="Wireframes" stroke="none" stroke-width="1" fill="none" fill-rule="evenodd">
        <g id="Our-Work---Project-Map" transform="translate(-1162.000000, -845.000000)">
            <g id="icon-cs-water-droplet" transform="translate(1162.000000, 845.000000)">
                <circle id="Oval" fill="#473892" cx="14" cy="14" r="14"></circle>
                <path d="M13.8749836,24.499994 C17.6749852,24.499994 20.7499672,21.3886581 20.7499672,17.5433761 C20.7499672,13.1781521 16.8519281,11.5535527 15.0163765,5.36292419 C14.7062423,4.23869744 13.0851524,4.18635991 12.7335908,5.36292419 C10.9066222,11.5254003 7,13.2000103 7,17.5433761 C7,21.3886581 10.074982,24.499994 13.8749836,24.499994 Z M13.8749836,22 C11.46288,22 9.49999404,20.0371141 9.49999404,17.6250104 C9.49999404,17.2797049 9.77968698,17.0000119 10.1249925,17.0000119 C10.4702981,17.0000119 10.7499911,17.2797049 10.7499911,17.6250104 C10.7499911,19.3480669 12.1519271,20.750003 13.8749836,20.750003 C14.2202892,20.750003 14.4999821,21.0296959 14.4999821,21.3750015 C14.4999821,21.7203071 14.2202892,22 13.8749836,22 Z" id="tint" fill="#FFFFFF" fill-rule="nonzero"></path>
            </g>
        </g>
    </g>
</svg>