<?xml version="1.0" encoding="UTF-8"?>
<svg width="28px" height="28px" viewBox="0 0 28 28" version="1.1" xmlns="http://www.w3.org/2000/svg" xmlns:xlink="http://www.w3.org/1999/xlink">
    <title>icon-edu-whale-wharf</title>
    <g id="Wireframes" stroke="none" stroke-width="1" fill="none" fill-rule="evenodd">
        <g id="Our-Work---Project-Map" transform="translate(-860.000000, -845.000000)">
            <g id="icon-edu-whale-wharf" transform="translate(860.000000, 845.000000)">
                <circle id="Oval" fill="#D85608" cx="14" cy="14" r="14"></circle>
                <path d="M22.2499517,20 C23.4927085,20 24.4999464,18.9927621 24.4999464,17.7500054 L24.4999464,13.2500161 C24.4999464,11.3888335 22.9861369,9.87502414 21.1249544,9.87502414 C12.5802551,9.87502414 10.0405654,17.7500054 7.76138839,17.7500054 C7.06598981,17.7500054 6.49998927,17.1843481 6.49998927,16.4889496 L6.49998927,13.0439886 L8.24900854,11.9713822 C8.52555436,11.786984 8.74998391,11.3675819 8.74998391,11.0351776 L8.74998391,8.18821481 C8.74998391,7.73894372 8.24935186,7.47104962 7.87530261,7.72030134 L5.37499195,9.387404 L2.87468129,7.72030134 C2.50063205,7.47139294 2,7.73928704 2,8.18859246 L2,11.0351776 C2,11.4113555 2.18807176,11.7625738 2.50097537,11.9710389 L4.24999464,13.0439886 L4.24999464,16.4889496 C4.24999464,18.4250106 5.82498401,20 7.76138839,20 L22.2499517,20 Z M17.1874638,15.5000107 C16.8766888,15.5000107 16.6249651,15.2482871 16.6249651,14.9375121 C16.6249651,14.6267371 16.8766888,14.3750134 17.1874638,14.3750134 C17.4982388,14.3750134 17.7499624,14.6267371 17.7499624,14.9375121 C17.7499624,15.2482871 17.4982388,15.5000107 17.1874638,15.5000107 Z" id="whale" fill="#FFFFFF" fill-rule="nonzero"></path>
            </g>
        </g>
    </g>
</svg>