<?xml version="1.0" encoding="UTF-8"?>
<svg width="28px" height="28px" viewBox="0 0 28 28" version="1.1" xmlns="http://www.w3.org/2000/svg" xmlns:xlink="http://www.w3.org/1999/xlink">
    <title>icon-cs-nearshore</title>
    <g id="Wireframes" stroke="none" stroke-width="1" fill="none" fill-rule="evenodd">
        <g id="Our-Work---Project-Map" transform="translate(-1162.000000, -886.000000)">
            <g id="icon-cs-nearshore" transform="translate(1162.000000, 886.000000)">
                <circle id="Oval" fill="#473892" cx="14" cy="14" r="14"></circle>
                <path d="M3.65234982,9.74613584 C4.77733951,9.64847982 5.84373559,9.30080914 6.75388204,8.73440424 C8.96090803,10.0859483 12.1054318,10.0664171 14.2538642,8.73440424 C16.4608901,10.0859483 19.6054139,10.0664171 21.7538463,8.73440424 C22.6640309,9.28909805 23.742138,9.64455069 24.8437055,9.74220671 C25.1991582,9.77344901 25.4961047,9.47269899 25.4961047,9.1172082 L25.4961047,7.8828514 C25.4999464,7.57035215 25.273392,7.28127508 24.9569636,7.2461418 C24.1171219,7.14848578 23.3124516,6.83598653 22.6952732,6.35159742 C22.1444703,5.91801997 21.3593312,5.91019986 20.8124575,6.35159742 C19.3319771,7.53910985 16.6249599,7.53910985 15.1210572,6.29300381 C14.5937147,5.85549723 13.8319978,5.93755117 13.2968352,6.36330852 C11.8124637,7.53910985 9.12108679,7.53518072 7.62500423,6.2968948 C7.09766174,5.85942636 6.32419557,5.94926226 5.78514198,6.37501961 C5.17967467,6.8515886 4.37889533,7.16019688 3.53123347,7.25003278 C3.22266335,7.28127508 3,7.55471193 3,7.8633202 L3,9.12113733 C3,9.47658997 3.29685903,9.77737814 3.65234982,9.74613584 Z M3.65234982,15.3711224 C4.77733951,15.2734664 5.84373559,14.9257957 6.75388204,14.3593908 C8.96090803,15.7109349 12.1054318,15.6914036 14.2538642,14.3593908 C16.4608901,15.7109349 19.6054139,15.6914036 21.7538463,14.3593908 C22.6640309,14.9140846 23.742138,15.2695373 24.8437055,15.3671933 C25.1991582,15.3984356 25.4961047,15.0976856 25.4961047,14.7421948 L25.4961047,13.507838 C25.4999464,13.1953387 25.273392,12.9062617 24.9569636,12.8711284 C24.1171219,12.7773634 23.3124516,12.4609731 22.6952732,11.976584 C22.1444703,11.5430066 21.3593312,11.5351864 20.8124575,11.976584 C19.3319771,13.1640964 16.6249599,13.1640964 15.1210572,11.9179904 C14.5937147,11.4804838 13.8319978,11.5625378 13.2968352,11.9882951 C11.8124637,13.1640964 9.12108679,13.1601673 7.62500423,11.9218814 C7.09766174,11.4844129 6.32419557,11.5742489 5.78514198,12.0000062 C5.17967467,12.4765752 4.37889533,12.7851835 3.53123347,12.8750194 C3.22266335,12.9062617 3,13.1796985 3,13.4883068 L3,14.7461239 C3,15.1015766 3.29685903,15.4023647 3.65234982,15.3711224 Z M3.65234982,20.996109 C4.77733951,20.898453 5.84373559,20.5507823 6.75388204,19.9843774 C8.96090803,21.3359214 12.1054318,21.3163902 14.2538642,19.9843774 C16.4608901,21.3359214 19.6054139,21.3163902 21.7538463,19.9843774 C22.6640309,20.5390712 23.742138,20.8945239 24.8437055,20.9921799 C25.1991582,21.0234222 25.4961047,20.7226722 25.4961047,20.3671814 L25.4961047,19.1328246 C25.4999464,18.8203253 25.273392,18.5312483 24.9569636,18.496115 C24.1171219,18.4023499 23.3124516,18.0859597 22.6952732,17.6015706 C22.1444703,17.1679931 21.3593312,17.160173 20.8124575,17.6015706 C19.3319771,18.789083 16.6249599,18.789083 15.1210572,17.542977 C14.5937147,17.1054704 13.8319978,17.1875243 13.2968352,17.6132817 C11.8124637,18.789083 9.12108679,18.7851539 7.62500423,17.546868 C7.09766174,17.1093995 6.32419557,17.1992354 5.78514198,17.6249928 C5.17967467,18.1015618 4.37889533,18.4101701 3.53123347,18.500006 C3.22266335,18.5312483 3,18.8046851 3,19.1132934 L3,20.3711105 C3,20.7265632 3.29685903,21.0273513 3.65234982,20.996109 Z" id="water" fill="#FFFFFF" fill-rule="nonzero"></path>
            </g>
        </g>
    </g>
</svg>