<?xml version="1.0" encoding="UTF-8"?>
<svg width="28px" height="28px" viewBox="0 0 28 28" version="1.1" xmlns="http://www.w3.org/2000/svg" xmlns:xlink="http://www.w3.org/1999/xlink">
    <title>icon-cs-marine-flora</title>
    <g id="Wireframes" stroke="none" stroke-width="1" fill="none" fill-rule="evenodd">
        <g id="Our-Work---Project-Map" transform="translate(-1161.000000, -927.000000)">
            <g id="icon-cs-marine-flora" transform="translate(1161.000000, 927.000000)">
                <circle id="Oval" fill="#473892" cx="14" cy="14" r="14"></circle>
                <path d="M16.1601196,14.4531354 C20.5624605,13.9960976 23.9999523,10.277387 23.9999523,5.75003874 L21.4999583,5.75003874 C18.210896,5.75003874 15.3515202,7.56644066 13.8554376,10.2500387 C14.9374739,11.429728 15.7382533,12.8632878 16.1601196,14.4531354 Z M14.6249747,23.249997 C14.9687162,23.249997 15.2499732,22.9687401 15.2499732,22.6249985 L15.2499732,17.0000119 C15.2499732,12.1679846 11.3320214,8.25003278 6.5,8.25003278 L4,8.25003278 C4,13.0820601 7.91795178,17.0000119 12.7499791,17.0000119 L12.7499791,22.6249985 C12.7499791,22.9687401 13.0312361,23.249997 13.3749776,23.249997 L14.6249747,23.249997 Z" id="seedling" fill="#FFFFFF" fill-rule="nonzero"></path>
            </g>
        </g>
    </g>
</svg>