<?xml version="1.0" encoding="UTF-8"?>
<svg width="28px" height="28px" viewBox="0 0 28 28" version="1.1" xmlns="http://www.w3.org/2000/svg" xmlns:xlink="http://www.w3.org/1999/xlink">
    <title>icon-stw-beach-clean-up</title>
    <g id="Wireframes" stroke="none" stroke-width="1" fill="none" fill-rule="evenodd">
        <g id="Our-Work---Project-Map" transform="translate(-860.000000, -1092.000000)">
            <g id="icon-stw-beach-clean-up" transform="translate(860.000000, 1092.000000)">
                <circle id="Oval" fill="#0F854E" cx="14" cy="14" r="14"></circle>
                <path d="M21.1874638,8.6250295 C21.4979641,8.6250295 21.7499624,8.3730312 21.7499624,8.06253085 L21.7499624,6.93753353 C21.7499624,6.62703317 21.4979641,6.37503487 21.1874638,6.37503487 L16.9687238,6.37503487 L16.6382422,5.71760769 C16.5097024,5.45949826 16.1713587,5.25003755 15.8830026,5.25003755 L11.8608488,5.25003755 C11.5735226,5.25003755 11.2379254,5.45949826 11.1117203,5.71760769 L10.7812386,6.37503487 L6.56249866,6.37503487 C6.2519983,6.37503487 6,6.62703317 6,6.93753353 L6,8.06253085 C6,8.3730312 6.2519983,8.6250295 6.56249866,8.6250295 L21.1874638,8.6250295 Z M18.9374692,23.2499946 C19.8689702,23.2499946 20.6249651,22.4939997 20.6249651,21.5624987 L20.6249651,9.75002682 L7.12499732,9.75002682 L7.12499732,21.5624987 C7.12499732,22.4939997 7.88099222,23.2499946 8.81249329,23.2499946 L18.9374692,23.2499946 Z M17.2499732,21 C16.9394728,21 16.6874745,20.7480017 16.6874745,20.4375013 L16.6874745,12.5625201 C16.6874745,12.2520198 16.9394728,12.0000215 17.2499732,12.0000215 C17.5604735,12.0000215 17.8124718,12.2520198 17.8124718,12.5625201 L17.8124718,20.4375013 C17.8124718,20.7480017 17.5604735,21 17.2499732,21 Z M13.8749812,21 C13.5644809,21 13.3124826,20.7480017 13.3124826,20.4375013 L13.3124826,12.5625201 C13.3124826,12.2520198 13.5644809,12.0000215 13.8749812,12.0000215 C14.1854816,12.0000215 14.4374799,12.2520198 14.4374799,12.5625201 L14.4374799,20.4375013 C14.4374799,20.7480017 14.1854816,21 13.8749812,21 Z M10.4999893,21 C10.1894889,21 9.93749061,20.7480017 9.93749061,20.4375013 L9.93749061,12.5625201 C9.93749061,12.2520198 10.1894889,12.0000215 10.4999893,12.0000215 C10.8104896,12.0000215 11.0624879,12.2520198 11.0624879,12.5625201 L11.0624879,20.4375013 C11.0624879,20.7480017 10.8104896,21 10.4999893,21 Z" id="trash-alt" fill="#FFFFFF" fill-rule="nonzero"></path>
            </g>
        </g>
    </g>
</svg>