<?xml version="1.0" encoding="UTF-8"?>
<svg width="28px" height="28px" viewBox="0 0 28 28" version="1.1" xmlns="http://www.w3.org/2000/svg" xmlns:xlink="http://www.w3.org/1999/xlink">
    <title>icon-edu-person</title>
    <g id="Wireframes" stroke="none" stroke-width="1" fill="none" fill-rule="evenodd">
        <g id="Our-Work---Project-Map" transform="translate(-860.000000, -888.000000)">
            <g id="icon-edu-person" transform="translate(860.000000, 888.000000)">
                <circle id="Oval" fill="#D85608" cx="14" cy="14" r="14"></circle>
                <path d="M13.7499839,10.3125255 C15.1479565,10.3125255 16.2812279,9.17921977 16.2812279,7.78128152 C16.2812279,6.38330893 15.1479565,5.25003755 13.7499839,5.25003755 C12.3520113,5.25003755 11.2187399,6.38330893 11.2187399,7.78128152 C11.2187399,9.17921977 12.3520113,10.3125255 13.7499839,10.3125255 Z M12.3437373,23.2499946 C12.965047,23.2499946 13.4687346,22.746307 13.4687346,22.1249973 L13.4687346,18.1875067 L14.0312332,18.1875067 L14.0312332,22.1249973 C14.0312332,22.746307 14.5349208,23.2499946 15.1562306,23.2499946 L15.7187292,23.2499946 C16.3400389,23.2499946 16.8437265,22.746307 16.8437265,22.1249973 L16.8437265,12.7472273 L20.1704474,9.42050643 C20.6097965,8.98115735 20.6097965,8.26890166 20.1704474,7.82955258 C19.7311327,7.3902035 19.0188083,7.3902035 18.5794936,7.82955258 L15.5339877,10.8750241 L11.9659458,10.8750241 L8.92047424,7.82955258 C8.48115949,7.3902035 7.76883514,7.3902035 7.32952039,7.82955258 C6.89017131,8.26890166 6.89017131,8.98119168 7.32952039,9.42054076 L10.6562413,12.7472273 L10.6562413,22.1249973 C10.6562413,22.746307 11.1599289,23.2499946 11.7812386,23.2499946 L12.3437373,23.2499946 Z" id="child" fill="#FFFFFF" fill-rule="nonzero"></path>
            </g>
        </g>
    </g>
</svg>