<?xml version="1.0" encoding="utf-8"?>
<!-- Generator: Adobe Illustrator 25.4.1, SVG Export Plug-In . SVG Version: 6.00 Build 0)  -->
<svg version="1.1" id="Layer_1" xmlns="http://www.w3.org/2000/svg" xmlns:xlink="http://www.w3.org/1999/xlink" x="0px" y="0px"
	 viewBox="0 0 28 28" style="enable-background:new 0 0 28 28;" xml:space="preserve">
<style type="text/css">
	.st0{fill-rule:evenodd;clip-rule:evenodd;fill:#473892;}
	.st1{fill:#FFFFFF;}
</style>
<g id="Wireframes">
	<g id="Our-Work---Project-Map" transform="translate(-1161.000000, -967.000000)">
		<g id="icon-cs-fish" transform="translate(1161.000000, 967.000000)">
			<g id="Fish">
				<circle id="Oval" class="st0" cx="14" cy="14" r="14"/>
			</g>
			<path id="fish" class="st1" d="M15.5,19.9c4.8,0,8.8-4.5,8.8-5.6s-3.9-5.6-8.8-5.6c-3.2,0-5.9,1.9-7.5,3.6L5,9.9
				c-0.4-0.3-1.1,0-1,0.5l0.9,3.9L4,18.1c-0.1,0.5,0.5,0.8,1,0.5L8,16.3C9.6,17.9,12.3,19.9,15.5,19.9z M18.6,15.1
				c-0.5,0-0.8-0.4-0.8-0.8c0-0.5,0.4-0.8,0.8-0.8c0.5,0,0.8,0.4,0.8,0.8C19.4,14.7,19,15.1,18.6,15.1z"/>
		</g>
	</g>
</g>
</svg>
